# AST/ASF file generated using VICON BodyLanguage
# -----------------------------------------------
:version 1.10
:name VICON
:units
  mass 1.0
  length 0.45
  angle deg
:documentation
   .ast/.asf automatically generated from VICON data using
   VICON BodyBuilder and BodyLanguage model FoxedUp or BRILLIANT.MOD
:root
   order TX TY TZ RX RY RZ
   axis XYZ
   position 0 0 0  
   orientation 0 0 0 
:bonedata
  begin
     id 1 
     name lhipjoint
     direction 0.662698 -0.695252 0.27831 
     length 2.53073 
     axis 0 0 0  XYZ
  end
  begin
     id 2 
     name lfemur
     direction 0.34202 -0.939693 0  
     length 7.16147  
     axis 0 0 20  XYZ
    dof rx ry rz
    limits (-160.0 20.0)
           (-70.0 70.0)
           (-60.0 70.0)
  end
  begin
     id 3 
     name ltibia
     direction 0.34202 -0.939693 0   
     length 7.63967   
     axis 0 0 20   XYZ
    dof rx
    limits (-10.0 170.0)
  end
  begin
     id 4 
     name lfoot
     direction 0.0938457 -0.257721 0.961651   
     length 1.89793   
     axis -90 7.62852e-016 20   XYZ
    dof rx rz
    limits (-45.0 90.0)
           (-70.0 20.0)
  end
  begin
     id 5 
     name ltoes
     direction -0.00116841 -0.0030592 0.999995   
     length 0.955649   
     axis -90 7.62852e-016 20   XYZ
    dof rx
    limits (-90.0 20.0)
  end
  begin
     id 6 
     name rhipjoint
     direction -0.649445 -0.705948 0.282592   
     length 2.49238  
     axis 0 0 0  XYZ 
  end
  begin
     id 7 
     name rfemur
     direction -0.34202 -0.939693 0   
     length 6.90728   
     axis 0 0 -20   XYZ
    dof rx ry rz
    limits (-160.0 20.0)
           (-70.0 70.0)
           (-70.0 60.0)
  end
  begin
     id 8 
     name rtibia
     direction -0.34202 -0.939693 0   
     length 7.72868   
     axis 0 0 -20   XYZ
    dof rx
    limits (-10.0 170.0)
 end
 begin
     id 9 
     name rfoot
     direction -0.0920068 -0.252865 0.963117   
     length 1.97476  
     axis -90 -7.62852e-016 -20   XYZ
    dof rx rz
    limits (-45.0 90.0)
           (-20.0 70.0)
  end
  begin
     id 10 
     name rtoes
     direction 0.000391322 0.00230649 0.999997   
     length 0.992641   
     axis -90 -7.62852e-016 -20   XYZ
    dof rx
    limits (-90.0 20.0)
  end
  begin
     id 11 
     name lowerback
     direction -0.00875327 0.998321 -0.0572635   
     length 2.20024   
     axis 0 0 0   XYZ
    dof rx ry rz
    limits (-20.0 45.0)
           (-30.0 30.0)
           (-30.0 30.0)
  end
  begin
     id 12 
     name upperback
     direction 0.00753931 0.999972 -0.000360425   
     length 2.20538   
     axis 0 0 0   XYZ
    dof rx ry rz
    limits (-20.0 45.0)
           (-30.0 30.0)
           (-30.0 30.0)
  end
  begin
     id 13 
     name thorax
     direction 0.0117767 0.999601 0.0256663   
     length 2.21508   
     axis 0 0 0   XYZ
    dof rx ry rz
    limits (-20.0 45.0)
           (-30.0 30.0)
           (-30.0 30.0)
  end
  begin
     id 14 
     name lowerneck
     direction 0.060228 0.994909 0.0807986   
     length 1.7607   
     axis 0 0 0   XYZ
    dof rx ry rz
    limits (-20.0 45.0)
           (-30.0 30.0)
           (-30.0 30.0)
  end
  begin
     id 15 
     name upperneck
     direction -0.0563647 0.959594 -0.275685   
     length 1.75612   
     axis 0 0 0   XYZ
    dof rx ry rz
    limits (-20.0 45.0)
           (-30.0 30.0)
           (-30.0 30.0)
  end
  begin
     id 16
     name head
     direction -0.0161544 0.99458 -0.102714  
     length 1.79288  
     axis 0 0 0   XYZ
    dof rx ry rz
    limits (-20.0 45.0)
           (-30.0 30.0)
           (-30.0 30.0)
  end
  begin
     id 17 
     name lclavicle
     direction 0.93913 0.332189 -0.087669  
     length 3.52087  
     axis 0 0 0   XYZ
    dof ry rz
    limits (-20.0 10.0)
           (0.0 20.0)
  end
  begin
     id 18 
     name lhumerus
     direction 1 -4.48974e-011 -2.70836e-027   
     length 5.35289   
     axis -180 -30 -90   XYZ
    dof rx ry rz
    limits (-60.0 90.0)
           (-90.0 90.0)
           (-90.0 90.0)
  end
  begin
     id 19
     name lradius
     direction 1 -4.48961e-011 -9.76021e-027   
     length 3.27727   
     axis -180 -30 -90   XYZ
    dof rx
    limits (-10.0 170.0)
  end
  begin
     id 20
     name lwrist
     direction 1 -4.49103e-011 -2.23668e-026   
     length 1.63864   
     axis 1.44924e-014 90 90   XYZ
    dof ry
    limits (-180.0 0.0)
 end
  begin
     id 21 
     name lhand
     direction 1 3.0697e-005 0.000161777   
     length 0.54443   
     axis 2.85318e-014 90 90   XYZ
    dof rx rz
    limits (-90.0 90.0)
           (-45.0 45.0)
  end
  begin
     id 22 
     name lfingers
     direction 1 -4.49027e-011 -8.9447e-026   
     length 0.438912   
     axis 5.70628e-014 90 90   XYZ
    dof rx
    limits (0.0 90.0)
  end
  begin
     id 23
     name lthumb
     direction 0.707058 2.6516e-005 0.707156   
     length 0.630274   
     axis -90 45 -3.53137e-014   XYZ
    dof rx rz
    limits (-45.0 45.0)
           (-45.0 45.0)
  end
  begin
     id 24 
     name rclavicle
     direction -0.95274 0.284984 -0.105215   
     length 3.43401  
     axis 0 0 0   XYZ 
    dof ry rz
    limits (-10.0 20.0)
           (-20.0 0.0)
  end
  begin
     id 25 
     name rhumerus
     direction -0.999999 -0.000575019 -0.00106829  
     length 5.52077   
     axis -180 30 90   XYZ
    dof rx ry rz
    limits (-90.0 60.0)
           (-90.0 90.0)
           (-90.0 90.0)
  end
  begin
     id 26 
     name rradius
     direction -1 -4.4879e-011 -6.35415e-027   
     length 3.32364   
     axis -180 30 90   XYZ
    dof rx
    limits (-10.0 170.0)
  end
  begin
     id 27 
     name rwrist
     direction -1 -4.49048e-011 -9.98542e-027   
     length 1.66182   
     axis 6.32482e-015 -90 -90   XYZ
    dof ry
    limits (-180.0 0.0)
  end
  begin
     id 28
     name rhand
     direction -1 -4.48978e-011 -1.99771e-026   
     length 0.732235   
     axis 1.27479e-014 -90 -90   XYZ
    dof rx rz
    limits (-90.0 90.0)
           (-45.0 45.0)
  end
  begin
     id 29
     name rfingers
     direction -1 -4.49144e-011 -3.99245e-026   
     length 0.590347   
     axis 2.5496e-014 -90 -90   XYZ
    dof rx
    limits (0.0 90.0)
  end
  begin
     id 30
     name rthumb
     direction -0.707107 -6.35121e-011 0.707107   
     length 0.847624   
     axis -90 -45 -2.82974e-014   XYZ
    dof rx rz
    limits (-45.0 45.0)
           (-45.0 45.0)
  end
:hierarchy
  begin
    root lhipjoint rhipjoint lowerback
    lhipjoint lfemur
    lfemur ltibia
    ltibia lfoot
    lfoot ltoes
    rhipjoint rfemur
    rfemur rtibia
    rtibia rfoot
    rfoot rtoes
    lowerback upperback
    upperback thorax
    thorax lowerneck lclavicle rclavicle
    lowerneck upperneck
    upperneck head
    lclavicle lhumerus
    lhumerus lradius
    lradius lwrist
    lwrist lhand lthumb
    lhand lfingers
    rclavicle rhumerus
    rhumerus rradius
    rradius rwrist
    rwrist rhand rthumb
    rhand rfingers
  end

#!OML:ASF G:\Work\Work\Patient Classification 1\Elijah\terrain1\Elijah.ASF
:FULLY-SPECIFIED
:DEGREES
1997
root 14.7575 19.8742 12.0173 594.105 84.8967 230.319
lowerback 9.89117 1.79623 3.85472
upperback 1.662 2.82873 -0.388837
thorax -3.60418 1.37929 -2.93163
lowerneck -16.5572 7.9498 9.52047
upperneck 34.1563 13.1392 -7.6561
head 16.1531 6.14412 -2.29074
rclavicle -5.71506e-015 -4.77083e-015
rhumerus -40.6153 12.5113 -90.5806
rradius 61.6599
rwrist -6.92665
rhand -14.3348 24.3712
rfingers 7.12502
rthumb 11.8063 -5.27601
lclavicle -5.71506e-015 -4.77083e-015
lhumerus -41.2291 8.47451 80.9056
lradius 53.1819
lwrist 12.6433
lhand -17.1384 24.6069
lfingers 7.12502
lthumb 9.10176 54.3905
rfemur -9.34664 3.35771 29.4491
rtibia 25.157
rfoot -15.0538 -8.95716
rtoes -7.47158
lfemur -67.1681 6.26161 -16.4153
ltibia 108.689
lfoot -3.50531 -20.8567
ltoes 1.49052
1998
root 14.8306 19.9023 12.0205 596.107 85.2425 232.25
lowerback 10.0928 1.88789 3.27785
upperback 1.77475 2.90531 -0.226007
thorax -3.63017 1.42695 -2.45411
lowerneck -16.5679 7.8113 8.87899
upperneck 34.0553 13.1742 -7.78294
head 16.0639 6.06202 -2.23084
rclavicle -6.36111e-015 2.34566e-014
rhumerus -40.4861 13.7137 -90.4486
rradius 62.0733
rwrist -6.80957
rhand -13.5723 24.5706
rfingers 7.12502
rthumb 12.5415 -5.033
lclavicle -6.36111e-015 2.34566e-014
lhumerus -41.2409 8.17709 81.4898
lradius 54.2232
lwrist 16.8485
lhand -22.3055 25.885
lfingers 7.12502
lthumb 4.1138 55.8251
rfemur -8.99846 3.71612 29.3016
rtibia 24.8679
rfoot -14.8 -9.0821
rtoes -7.78376
lfemur -67.9288 6.23656 -16.2701
ltibia 106.621
lfoot -3.84449 -21.1019
ltoes 1.97464
1999
root 14.9003 19.9211 12.0229 597.191 85.4137 233.108
lowerback 10.2089 1.95747 2.99517
upperback 1.79977 2.96883 -0.291428
thorax -3.67527 1.46103 -2.37613
lowerneck -16.4317 7.7497 8.5193
upperneck 33.8946 13.1099 -7.61574
head 15.8938 6.01565 -2.11863
rclavicle -6.80837e-015 5.1684e-015
rhumerus -40.3239 14.2475 -90.5643
rradius 62.3202
rwrist -6.74632
rhand -13.1761 24.7198
rfingers 7.12502
rthumb 12.9235 -4.85999
lclavicle -6.80837e-015 5.1684e-015
lhumerus -41.2859 9.02119 81.1138
lradius 54.7048
lwrist 16.3808
lhand -22.089 25.9346
lfingers 7.12502
lthumb 4.32279 55.8705
rfemur -8.76386 3.86227 29.2315
rtibia 24.4492
rfoot -14.2892 -9.17793
rtoes -8.31129
lfemur -68.8669 5.99175 -16.2065
ltibia 104.407
lfoot -5.2647 -20.9822
ltoes -3.29884
2000
root 14.9727 19.9399 12.0145 600.684 85.2536 236.365
lowerback 10.2899 1.97162 3.1447
upperback 1.83103 3.00796 -0.275389
thorax -3.67831 1.47963 -2.45108
lowerneck -16.2641 7.84964 8.56315
upperneck 33.7976 13.2233 -7.56272
head 15.8182 6.07954 -2.08666
rclavicle -6.31141e-014 2.98177e-014
rhumerus -40.1424 14.9612 -90.6549
rradius 62.5642
rwrist -6.87995
rhand -13.174 24.7001
rfingers 7.12502
rthumb 12.9254 -4.87955
lclavicle -6.31141e-014 2.98177e-014
lhumerus -41.154 9.54904 80.53
lradius 54.9529
lwrist 15.9186
lhand -20.9057 25.5607
lfingers 7.12502
lthumb 5.46538 55.4703
rfemur -8.64493 3.87451 29.5378
rtibia 24.2112
rfoot -13.8091 -9.13176
rtoes -9.08374
lfemur -69.7524 5.57268 -15.5472
ltibia 102.023
lfoot -5.87165 -21.127
ltoes -5.59042
2001
root 15.0586 19.977 11.9763 603.207 85.3085 238.789
lowerback 10.3522 2.16269 3.57722
upperback 1.96011 3.3046 -0.464058
thorax -3.52338 1.62841 -2.92564
lowerneck -16.375 7.78835 8.84754
upperneck 33.9668 13.0675 -7.57384
head 15.936 6.04484 -2.16714
rclavicle -1.26228e-014 -1.07344e-014
rhumerus -39.9217 14.9423 -90.5388
rradius 62.741
rwrist -6.70357
rhand -13.038 24.7372
rfingers 7.12502
rthumb 13.0566 -4.83413
lclavicle -1.26228e-014 -1.07344e-014
lhumerus -40.7994 9.28498 80.2242
lradius 55.0542
lwrist 15.5628
lhand -20.3768 25.3071
lfingers 7.12502
lthumb 5.97607 55.2028
rfemur -8.25781 3.67626 29.4245
rtibia 23.714
rfoot -13.2661 -8.78531
rtoes -9.7111
lfemur -70.0509 4.74192 -15.0584
ltibia 99.384
lfoot -5.86186 -21.1794
ltoes -4.43462
2002
root 15.1106 20.0164 11.9641 595.711 85.9605 230.385
lowerback 9.95271 2.34433 3.02909
upperback 1.82546 3.44881 -0.99077
thorax -3.4312 1.702 -3.16643
lowerneck -16.6173 7.60069 9.01515
upperneck 34.1266 12.7332 -7.57701
head 16.0475 5.91771 -2.25812
rclavicle -1.39149e-014 -5.96354e-015
rhumerus -39.6333 14.3463 -90.4406
rradius 62.7644
rwrist -6.44456
rhand -12.6723 24.9595
rfingers 7.12502
rthumb 13.409 -4.58893
lclavicle -1.39149e-014 -5.96354e-015
lhumerus -40.5126 8.78381 80.091
lradius 55.2506
lwrist 15.6379
lhand -20.0621 25.4942
lfingers 7.12502
lthumb 6.2799 55.3811
rfemur -8.80624 3.21332 28.4334
rtibia 23.2603
rfoot -12.6485 -8.45078
rtoes -10.6296
lfemur -71.0291 3.87972 -15.5999
ltibia 96.3671
lfoot -5.65294 -21.2593
ltoes -3.99158
2003
root 15.2146 20.0289 12.0052 610.968 85.3944 246.483
lowerback 10.7665 2.48641 3.27061
upperback 2.16218 3.71471 -0.575691
thorax -3.52304 1.84051 -2.93723
lowerneck -16.4653 7.65984 8.99713
upperneck 34.0578 12.8705 -7.66908
head 16.0017 5.9648 -2.27168
rclavicle 2.52457e-014 -4.37326e-015
rhumerus -39.5092 14.812 -90.5299
rradius 62.8398
rwrist -6.51897
rhand -12.4217 24.8773
rfingers 7.12502
rthumb 13.6506 -4.65511
lclavicle 2.52457e-014 -4.37326e-015
lhumerus -40.7299 9.38909 79.7798
lradius 55.5482
lwrist 15.6793
lhand -18.3733 25.8532
lfingers 7.12502
lthumb 7.91006 55.6852
rfemur -7.20203 4.10182 29.7886
rtibia 22.6318
rfoot -12.119 -8.74191
rtoes -11.3225
lfemur -70.1621 4.87119 -13.9769
ltibia 93.748
lfoot -6.05396 -22.1819
ltoes -6.12672
2004
root 15.2729 20.0836 11.9906 600.736 85.6655 235.599
lowerback 10.5519 2.35169 2.72465
upperback 2.11133 3.45936 -0.759054
thorax -3.49689 1.71747 -2.7796
lowerneck -16.5283 7.63447 8.80612
upperneck 34.1182 12.8178 -7.4676
head 16.0026 5.9407 -2.16316
rclavicle 3.02153e-014 1.31198e-014
rhumerus -39.4138 14.8984 -90.35
rradius 63.0709
rwrist -6.59703
rhand -12.3007 24.4395
rfingers 7.12502
rthumb 13.7672 -5.085
lclavicle 3.02153e-014 1.31198e-014
lhumerus -40.6476 9.74288 79.6786
lradius 55.6148
lwrist 15.3088
lhand -22.8711 25.4656
lfingers 7.12502
lthumb 3.56754 55.4155
rfemur -7.47212 3.36654 29.085
rtibia 22.1894
rfoot -11.5165 -8.60007
rtoes -11.5974
lfemur -70.6934 3.53516 -13.7665
ltibia 90.6238
lfoot -3.43711 -22.7758
ltoes 2.31224
2005
root 15.3675 20.1328 11.9891 607.709 86.1582 242.703
lowerback 10.8535 2.53577 2.35231
upperback 2.23168 3.66273 -1.03726
thorax -3.52942 1.82447 -2.89907
lowerneck -16.2966 7.84473 9.4428
upperneck 34.0451 12.9648 -7.53752
head 15.9936 6.07752 -2.27715
rclavicle 3.05134e-014 -3.18055e-015
rhumerus -39.3974 14.9211 -90.7522
rradius 63.1766
rwrist -6.54398
rhand -12.3582 24.1238
rfingers 7.12502
rthumb 13.7118 -5.40444
lclavicle 3.05134e-014 -3.18055e-015
lhumerus -40.71 10.0294 79.0211
lradius 55.7586
lwrist 15.1559
lhand -21.9772 25.4854
lfingers 7.12502
lthumb 4.43082 55.4191
rfemur -6.62099 3.88563 28.8457
rtibia 21.4388
rfoot -10.7681 -8.49279
rtoes -12.0629
lfemur -69.8198 3.43925 -13.2188
ltibia 87.5941
lfoot -2.24509 -23.0923
ltoes 6.90375
2006
root 15.4562 20.1575 11.9862 614.912 86.2891 249.928
lowerback 10.9948 2.64152 1.96848
upperback 2.35184 3.76989 -0.918214
thorax -3.50824 1.88436 -2.57838
lowerneck -16.3001 7.78656 9.06425
upperneck 34.1442 13.0114 -7.5017
head 16.0113 6.05461 -2.19013
rclavicle -3.91606e-014 2.82274e-014
rhumerus -39.3239 15.1587 -90.6378
rradius 63.1061
rwrist -6.42024
rhand -12.2023 24.1359
rfingers 7.12502
rthumb 13.862 -5.38214
lclavicle -3.91606e-014 2.82274e-014
lhumerus -40.9531 10.6261 78.9135
lradius 55.9682
lwrist 15.046
lhand -21.9106 25.4067
lfingers 7.12502
lthumb 4.49511 55.339
rfemur -5.9285 4.35854 28.9171
rtibia 20.7374
rfoot -10.1376 -8.52737
rtoes -12.1572
lfemur -69.1847 3.59872 -13.0938
ltibia 84.5481
lfoot -3.76629 -22.9385
ltoes -0.953228
2007
root 15.5474 20.1999 11.9435 606.362 86.1808 241.334
lowerback 11.0038 2.45025 2.41704
upperback 2.48393 3.56492 -1.10858
thorax -3.34693 1.78618 -2.99653
lowerneck -16.2187 7.7115 8.93864
upperneck 34.2036 12.8937 -7.32877
head 15.9779 6.01651 -2.1238
rclavicle 1.42131e-014 8.34896e-015
rhumerus -39.3411 14.7091 -90.4867
rradius 63.1244
rwrist -6.4424
rhand -11.8413 23.9781
rfingers 7.12502
rthumb 14.2099 -5.51583
lclavicle 1.42131e-014 8.34896e-015
lhumerus -40.9784 10.2981 78.8078
lradius 56.0091
lwrist 15.3821
lhand -21.2437 25.6307
lfingers 7.12502
lthumb 5.139 55.5483
rfemur -5.245 3.74783 28.648
rtibia 19.8584
rfoot -9.66869 -8.49616
rtoes -11.2603
lfemur -68.6929 2.21122 -12.7983
ltibia 81.4526
lfoot -3.028 -22.4521
ltoes -0.976256
2008
root 15.6494 20.2618 11.954 614.709 86.5646 249.558
lowerback 10.9088 3.04865 2.74853
upperback 2.55407 4.36965 -1.99161
thorax -3.07108 2.19539 -4.1942
lowerneck -16.3814 7.41043 9.95
upperneck 34.2936 11.8745 -6.82179
head 15.9779 5.77811 -2.28187
rclavicle -5.36719e-015 2.38542e-015
rhumerus -39.4922 12.6477 -91.0238
rradius 63.3447
rwrist -6.59976
rhand -11.9849 23.4067
rfingers 7.12502
rthumb 14.0715 -6.09687
lclavicle -5.36719e-015 2.38542e-015
lhumerus -40.4033 8.26731 77.9874
lradius 55.8227
lwrist 15.8042
lhand -21.2727 26.0786
lfingers 7.12502
lthumb 5.11101 55.9969
rfemur -4.58081 4.26927 28.4627
rtibia 18.98
rfoot -9.09368 -8.45028
rtoes -9.57224
lfemur -67.8056 2.00139 -12.1049
ltibia 78.4499
lfoot -2.05824 -22.2032
ltoes 0.860305
